<?xml version="1.0" encoding="UTF-8" standalone="no"?>
<svg
   height="24px"
   viewBox="0 -960 960 960"
   width="24px"
   fill="#e8eaed"
   version="1.1"
   id="svg1"
   sodipodi:docname="check_box_24dp_E8EAED_FILL0_wght400_GRAD0_opsz24.svg"
   inkscape:version="1.4 (86a8ad7, 2024-10-11)"
   xmlns:inkscape="http://www.inkscape.org/namespaces/inkscape"
   xmlns:sodipodi="http://sodipodi.sourceforge.net/DTD/sodipodi-0.dtd"
   xmlns="http://www.w3.org/2000/svg"
   xmlns:svg="http://www.w3.org/2000/svg">
  <defs
     id="defs1" />
  <sodipodi:namedview
     id="namedview1"
     pagecolor="#ffffff"
     bordercolor="#000000"
     borderopacity="0.25"
     inkscape:showpageshadow="2"
     inkscape:pageopacity="0.0"
     inkscape:pagecheckerboard="0"
     inkscape:deskcolor="#d1d1d1"
     inkscape:zoom="34.383067"
     inkscape:cx="17.188693"
     inkscape:cy="9.6704578"
     inkscape:window-width="2560"
     inkscape:window-height="1369"
     inkscape:window-x="-8"
     inkscape:window-y="-8"
     inkscape:window-maximized="1"
     inkscape:current-layer="svg1" />
  <path
     d="m 200,-120 c -22,0 -40.83333,-7.83333 -56.5,-23.5 C 127.83333,-159.16667 120,-178 120,-200 v -560 c 0,-22 7.83333,-40.83333 23.5,-56.5 15.66667,-15.66667 34.5,-23.5 56.5,-23.5 h 560 c 22,0 40.83333,7.83333 56.5,23.5 15.66667,15.66667 23.5,34.5 23.5,56.5 v 560 c 0,22 -7.83333,40.83333 -23.5,56.5 -15.66667,15.66667 -34.5,23.5 -56.5,23.5 z m 0,-80 H 760 V -760 H 200 Z m 0,-560 v 560 z"
     id="path1"
     sodipodi:nodetypes="ssssssssssssscccccccc" />
  <path
     d="m 314.06934,-266.66058 c -13.03741,0 -24.19822,-4.64211 -33.48244,-13.92632 -9.28421,-9.28422 -13.92632,-20.44503 -13.92632,-33.48244 v -331.86132 c 0,-13.03741 4.64211,-24.19822 13.92632,-33.48244 9.28422,-9.28421 20.44503,-13.92631 33.48244,-13.92631 h 331.86132 c 13.03741,0 24.19822,4.6421 33.48244,13.92631 9.28421,9.28422 13.92631,20.44503 13.92631,33.48244 v 331.86132 c 0,13.03741 -4.6421,24.19822 -13.92631,33.48244 -9.28422,9.28421 -20.44503,13.92632 -33.48244,13.92632 z"
     id="use1"
     sodipodi:nodetypes="sssssssssssss"
     style="stroke-width:0.59261" />
  <path
     d="m 200,-120 c -22,0 -40.83333,-7.83333 -56.5,-23.5 C 127.83333,-159.16667 120,-178 120,-200 v -560 c 0,-22 7.83333,-40.83333 23.5,-56.5 15.66667,-15.66667 34.5,-23.5 56.5,-23.5 h 560 c 22,0 40.83333,7.83333 56.5,23.5 15.66667,15.66667 23.5,34.5 23.5,56.5 v 560 c 0,22 -7.83333,40.83333 -23.5,56.5 -15.66667,15.66667 -34.5,23.5 -56.5,23.5 z m 0,-80 H 760 V -760 H 200 Z m 0,-560 v 560 z"
     id="path1-8"
     sodipodi:nodetypes="ssssssssssssscccccccc" />
</svg>
