<svg xmlns="http://www.w3.org/2000/svg" height="24" viewBox="0 -960 960 960" width="24" fill="#e8eaed" xmlns:v="https://vecta.io/nano"><use href="#B"/><path d="M314.069-266.661c-13.037 0-24.198-4.642-33.482-13.926s-13.926-20.445-13.926-33.482v-331.861c0-13.037 4.642-24.198 13.926-33.482s20.445-13.926 33.482-13.926h331.861c13.037 0 24.198 4.642 33.482 13.926s13.926 20.445 13.926 33.482v331.861c0 13.037-4.642 24.198-13.926 33.482s-20.445 13.926-33.482 13.926z"/><use href="#B"/><defs ><path id="B" d="M200-120c-22 0-40.833-7.833-56.5-23.5S120-178 120-200v-560c0-22 7.833-40.833 23.5-56.5S178-840 200-840h560c22 0 40.833 7.833 56.5 23.5S840-782 840-760v560c0 22-7.833 40.833-23.5 56.5S782-120 760-120zm0-80h560v-560H200zm0-560v560z"/></defs></svg>